<svg width="498" height="116" viewBox="0 0 498 116" fill="none" xmlns="http://www.w3.org/2000/svg">
<path d="M161.2 27.16V85H155.68C154.827 85 154.107 84.8667 153.52 84.6C152.96 84.3067 152.413 83.8267 151.88 83.16L121.68 44.6C121.84 46.36 121.92 47.9867 121.92 49.48V85H112.44V27.16H118.08C118.533 27.16 118.92 27.1867 119.24 27.24C119.587 27.2667 119.88 27.3467 120.12 27.48C120.387 27.5867 120.64 27.76 120.88 28C121.12 28.2133 121.387 28.5067 121.68 28.88L152 67.6C151.92 66.6667 151.853 65.7467 151.8 64.84C151.747 63.9333 151.72 63.0933 151.72 62.32V27.16H161.2ZM207.099 43.96V85H201.059C199.753 85 198.926 84.4 198.579 83.2L197.899 79.92C196.219 81.6267 194.366 83.0133 192.339 84.08C190.313 85.12 187.926 85.64 185.179 85.64C182.939 85.64 180.953 85.2667 179.219 84.52C177.513 83.7467 176.073 82.6667 174.899 81.28C173.726 79.8933 172.833 78.2533 172.219 76.36C171.633 74.44 171.339 72.3333 171.339 70.04V43.96H181.219V70.04C181.219 72.5467 181.793 74.4933 182.939 75.88C184.113 77.24 185.859 77.92 188.179 77.92C189.886 77.92 191.486 77.5467 192.979 76.8C194.473 76.0267 195.886 74.9733 197.219 73.64V43.96H207.099ZM230.576 85.64C227.002 85.64 224.256 84.64 222.336 82.64C220.442 80.6133 219.496 77.8267 219.496 74.28V51.36H215.296C214.762 51.36 214.309 51.1867 213.936 50.84C213.562 50.4933 213.376 49.9733 213.376 49.28V45.36L219.976 44.28L222.056 33.08C222.189 32.5467 222.442 32.1333 222.816 31.84C223.189 31.5467 223.669 31.4 224.256 31.4H229.376V44.32H240.336V51.36H229.376V73.6C229.376 74.88 229.682 75.88 230.296 76.6C230.936 77.32 231.802 77.68 232.896 77.68C233.509 77.68 234.016 77.6133 234.416 77.48C234.842 77.32 235.202 77.16 235.496 77C235.816 76.84 236.096 76.6933 236.336 76.56C236.576 76.4 236.816 76.32 237.056 76.32C237.349 76.32 237.589 76.4 237.776 76.56C237.962 76.6933 238.162 76.9067 238.376 77.2L241.336 82C239.896 83.2 238.242 84.1067 236.376 84.72C234.509 85.3333 232.576 85.64 230.576 85.64ZM255.981 51.08C257.261 48.6267 258.781 46.7067 260.541 45.32C262.301 43.9067 264.381 43.2 266.781 43.2C268.675 43.2 270.195 43.6133 271.341 44.44L270.701 51.84C270.568 52.32 270.368 52.6667 270.101 52.88C269.861 53.0667 269.528 53.16 269.101 53.16C268.701 53.16 268.101 53.0933 267.301 52.96C266.528 52.8267 265.768 52.76 265.021 52.76C263.928 52.76 262.955 52.92 262.101 53.24C261.248 53.56 260.475 54.0267 259.781 54.64C259.115 55.2267 258.515 55.9467 257.981 56.8C257.475 57.6533 256.995 58.6267 256.541 59.72V85H246.661V43.96H252.461C253.475 43.96 254.181 44.1467 254.581 44.52C254.981 44.8667 255.248 45.5067 255.381 46.44L255.981 51.08ZM286.745 43.96V85H276.825V43.96H286.745ZM288.105 32C288.105 32.8533 287.932 33.6533 287.585 34.4C287.238 35.1467 286.772 35.8 286.185 36.36C285.625 36.92 284.958 37.3733 284.185 37.72C283.412 38.04 282.585 38.2 281.705 38.2C280.852 38.2 280.038 38.04 279.265 37.72C278.518 37.3733 277.865 36.92 277.305 36.36C276.745 35.8 276.292 35.1467 275.945 34.4C275.625 33.6533 275.465 32.8533 275.465 32C275.465 31.12 275.625 30.2933 275.945 29.52C276.292 28.7467 276.745 28.08 277.305 27.52C277.865 26.96 278.518 26.52 279.265 26.2C280.038 25.8533 280.852 25.68 281.705 25.68C282.585 25.68 283.412 25.8533 284.185 26.2C284.958 26.52 285.625 26.96 286.185 27.52C286.772 28.08 287.238 28.7467 287.585 29.52C287.932 30.2933 288.105 31.12 288.105 32ZM328.859 63.16L321.819 43.92C321.473 43.0667 321.113 42.0533 320.739 40.88C320.366 39.7067 319.993 38.44 319.619 37.08C319.273 38.44 318.913 39.72 318.539 40.92C318.166 42.0933 317.806 43.12 317.459 44L310.459 63.16H328.859ZM347.859 85H339.539C338.606 85 337.846 84.7733 337.259 84.32C336.673 83.84 336.233 83.2533 335.939 82.56L331.619 70.76H307.659L303.339 82.56C303.126 83.1733 302.713 83.7333 302.099 84.24C301.486 84.7467 300.726 85 299.819 85H291.419L314.179 27.16H325.139L347.859 85ZM380.593 52.64C380.299 53.0133 380.006 53.3067 379.713 53.52C379.446 53.7333 379.046 53.84 378.513 53.84C378.006 53.84 377.513 53.6933 377.033 53.4C376.553 53.08 375.979 52.7333 375.313 52.36C374.646 51.96 373.846 51.6133 372.913 51.32C372.006 51 370.873 50.84 369.513 50.84C367.779 50.84 366.259 51.16 364.953 51.8C363.646 52.4133 362.553 53.3067 361.673 54.48C360.819 55.6533 360.179 57.08 359.753 58.76C359.326 60.4133 359.113 62.2933 359.113 64.4C359.113 66.5867 359.339 68.5333 359.793 70.24C360.273 71.9467 360.953 73.3867 361.833 74.56C362.713 75.7067 363.779 76.5867 365.033 77.2C366.286 77.7867 367.699 78.08 369.273 78.08C370.846 78.08 372.113 77.8933 373.073 77.52C374.059 77.12 374.886 76.6933 375.553 76.24C376.219 75.76 376.793 75.3333 377.273 74.96C377.779 74.56 378.339 74.36 378.953 74.36C379.753 74.36 380.353 74.6667 380.753 75.28L383.593 78.88C382.499 80.16 381.313 81.24 380.033 82.12C378.753 82.9733 377.419 83.6667 376.033 84.2C374.673 84.7067 373.259 85.0667 371.793 85.28C370.353 85.4933 368.913 85.6 367.473 85.6C364.939 85.6 362.553 85.1333 360.313 84.2C358.073 83.24 356.113 81.8533 354.433 80.04C352.753 78.2267 351.419 76.0133 350.433 73.4C349.473 70.76 348.993 67.76 348.993 64.4C348.993 61.3867 349.419 58.6 350.273 56.04C351.153 53.4533 352.433 51.2267 354.113 49.36C355.793 47.4667 357.873 45.9867 360.353 44.92C362.833 43.8533 365.686 43.32 368.912 43.32C371.979 43.32 374.659 43.8133 376.953 44.8C379.273 45.7867 381.353 47.2 383.193 49.04L380.593 52.64ZM415.523 59.76C415.523 58.48 415.336 57.28 414.963 56.16C414.616 55.0133 414.083 54.0133 413.363 53.16C412.643 52.3067 411.723 51.64 410.603 51.16C409.51 50.6533 408.23 50.4 406.763 50.4C403.91 50.4 401.656 51.2133 400.003 52.84C398.376 54.4667 397.336 56.7733 396.883 59.76H415.523ZM396.683 65.72C396.843 67.8267 397.216 69.6533 397.803 71.2C398.39 72.72 399.163 73.9867 400.123 75C401.083 75.9867 402.216 76.7333 403.523 77.24C404.856 77.72 406.323 77.96 407.923 77.96C409.523 77.96 410.896 77.7733 412.043 77.4C413.216 77.0267 414.23 76.6133 415.083 76.16C415.963 75.7067 416.723 75.2933 417.363 74.92C418.03 74.5467 418.67 74.36 419.283 74.36C420.11 74.36 420.723 74.6667 421.123 75.28L423.963 78.88C422.87 80.16 421.643 81.24 420.283 82.12C418.923 82.9733 417.496 83.6667 416.003 84.2C414.536 84.7067 413.03 85.0667 411.483 85.28C409.963 85.4933 408.483 85.6 407.043 85.6C404.19 85.6 401.536 85.1333 399.083 84.2C396.63 83.24 394.496 81.84 392.683 80C390.87 78.1333 389.443 75.84 388.403 73.12C387.363 70.3733 386.843 67.2 386.843 63.6C386.843 60.8 387.296 58.1733 388.203 55.72C389.11 53.24 390.403 51.0933 392.083 49.28C393.79 47.44 395.856 45.9867 398.283 44.92C400.736 43.8533 403.496 43.32 406.563 43.32C409.15 43.32 411.536 43.7333 413.723 44.56C415.91 45.3867 417.79 46.6 419.363 48.2C420.936 49.7733 422.163 51.72 423.043 54.04C423.95 56.3333 424.403 58.96 424.403 61.92C424.403 63.4133 424.243 64.4267 423.923 64.96C423.603 65.4667 422.99 65.72 422.083 65.72H396.683ZM456.858 51.96C456.591 52.3867 456.311 52.6933 456.018 52.88C455.724 53.04 455.351 53.12 454.898 53.12C454.418 53.12 453.898 52.9867 453.338 52.72C452.804 52.4533 452.178 52.16 451.458 51.84C450.738 51.4933 449.911 51.1867 448.977 50.92C448.071 50.6533 446.991 50.52 445.738 50.52C443.791 50.52 442.258 50.9333 441.138 51.76C440.044 52.5867 439.498 53.6667 439.498 55C439.498 55.88 439.778 56.6267 440.338 57.24C440.924 57.8267 441.684 58.3467 442.618 58.8C443.578 59.2533 444.658 59.6667 445.858 60.04C447.058 60.3867 448.271 60.7733 449.498 61.2C450.751 61.6267 451.978 62.12 453.178 62.68C454.378 63.2133 455.444 63.9067 456.378 64.76C457.338 65.5867 458.098 66.5867 458.658 67.76C459.244 68.9333 459.538 70.3467 459.538 72C459.538 73.9733 459.178 75.8 458.458 77.48C457.764 79.1333 456.724 80.5733 455.338 81.8C453.951 83 452.231 83.9467 450.178 84.64C448.151 85.3067 445.804 85.64 443.138 85.64C441.724 85.64 440.338 85.5067 438.978 85.24C437.644 85 436.351 84.6533 435.098 84.2C433.871 83.7467 432.724 83.2133 431.658 82.6C430.618 81.9867 429.698 81.32 428.898 80.6L431.178 76.84C431.471 76.3867 431.818 76.04 432.217 75.8C432.617 75.56 433.124 75.44 433.738 75.44C434.351 75.44 434.924 75.6133 435.458 75.96C436.018 76.3067 436.658 76.68 437.378 77.08C438.098 77.48 438.938 77.8533 439.898 78.2C440.884 78.5467 442.124 78.72 443.618 78.72C444.791 78.72 445.791 78.5867 446.618 78.32C447.471 78.0267 448.164 77.6533 448.698 77.2C449.258 76.7467 449.657 76.2267 449.898 75.64C450.164 75.0267 450.298 74.4 450.298 73.76C450.298 72.8 450.004 72.0133 449.418 71.4C448.858 70.7867 448.098 70.2533 447.137 69.8C446.204 69.3467 445.124 68.9467 443.898 68.6C442.698 68.2267 441.458 67.8267 440.178 67.4C438.924 66.9733 437.684 66.48 436.458 65.92C435.258 65.3333 434.178 64.6 433.218 63.72C432.284 62.84 431.524 61.76 430.938 60.48C430.378 59.2 430.098 57.6533 430.098 55.84C430.098 54.16 430.431 52.56 431.098 51.04C431.764 49.52 432.738 48.2 434.018 47.08C435.324 45.9333 436.938 45.0267 438.858 44.36C440.804 43.6667 443.044 43.32 445.578 43.32C448.404 43.32 450.978 43.7867 453.298 44.72C455.618 45.6533 457.551 46.88 459.098 48.4L456.858 51.96ZM492.014 51.96C491.747 52.3867 491.467 52.6933 491.174 52.88C490.88 53.04 490.507 53.12 490.054 53.12C489.574 53.12 489.054 52.9867 488.494 52.72C487.96 52.4533 487.334 52.16 486.614 51.84C485.894 51.4933 485.067 51.1867 484.134 50.92C483.227 50.6533 482.147 50.52 480.894 50.52C478.947 50.52 477.414 50.9333 476.294 51.76C475.2 52.5867 474.654 53.6667 474.654 55C474.654 55.88 474.934 56.6267 475.494 57.24C476.08 57.8267 476.84 58.3467 477.774 58.8C478.734 59.2533 479.814 59.6667 481.014 60.04C482.214 60.3867 483.427 60.7733 484.654 61.2C485.907 61.6267 487.134 62.12 488.334 62.68C489.534 63.2133 490.6 63.9067 491.534 64.76C492.494 65.5867 493.254 66.5867 493.814 67.76C494.4 68.9333 494.694 70.3467 494.694 72C494.694 73.9733 494.334 75.8 493.614 77.48C492.92 79.1333 491.88 80.5733 490.494 81.8C489.107 83 487.387 83.9467 485.334 84.64C483.307 85.3067 480.96 85.64 478.294 85.64C476.88 85.64 475.494 85.5067 474.134 85.24C472.8 85 471.507 84.6533 470.254 84.2C469.027 83.7467 467.88 83.2133 466.814 82.6C465.774 81.9867 464.854 81.32 464.054 80.6L466.334 76.84C466.627 76.3867 466.974 76.04 467.374 75.8C467.774 75.56 468.28 75.44 468.894 75.44C469.507 75.44 470.08 75.6133 470.614 75.96C471.174 76.3067 471.814 76.68 472.534 77.08C473.254 77.48 474.094 77.8533 475.054 78.2C476.04 78.5467 477.28 78.72 478.774 78.72C479.947 78.72 480.947 78.5867 481.774 78.32C482.627 78.0267 483.32 77.6533 483.854 77.2C484.414 76.7467 484.814 76.2267 485.054 75.64C485.32 75.0267 485.454 74.4 485.454 73.76C485.454 72.8 485.16 72.0133 484.574 71.4C484.014 70.7867 483.254 70.2533 482.294 69.8C481.36 69.3467 480.28 68.9467 479.054 68.6C477.854 68.2267 476.614 67.8267 475.334 67.4C474.08 66.9733 472.84 66.48 471.614 65.92C470.414 65.3333 469.334 64.6 468.374 63.72C467.44 62.84 466.68 61.76 466.094 60.48C465.534 59.2 465.254 57.6533 465.254 55.84C465.254 54.16 465.587 52.56 466.254 51.04C466.92 49.52 467.894 48.2 469.174 47.08C470.48 45.9333 472.094 45.0267 474.014 44.36C475.96 43.6667 478.2 43.32 480.734 43.32C483.56 43.32 486.134 43.7867 488.454 44.72C490.774 45.6533 492.707 46.88 494.254 48.4L492.014 51.96Z" fill="#F37F30"/>
<path d="M126.56 93.486V110H125.318C125.126 110 124.965 109.965 124.835 109.896C124.712 109.827 124.585 109.716 124.455 109.563L115.129 97.4995C115.144 97.7065 115.155 97.9097 115.163 98.109C115.178 98.3083 115.186 98.4962 115.186 98.6725V110H113.036V93.486H114.301C114.515 93.486 114.676 93.5128 114.784 93.5665C114.891 93.6125 115.01 93.7237 115.14 93.9L124.49 105.975C124.467 105.753 124.447 105.538 124.432 105.331C124.424 105.116 124.421 104.917 124.421 104.733V93.486H126.56ZM140.39 98.316V110H139.045C138.738 110 138.539 109.85 138.447 109.551L138.286 108.378C138.033 108.647 137.768 108.892 137.492 109.114C137.216 109.337 136.921 109.528 136.607 109.689C136.292 109.843 135.959 109.962 135.606 110.046C135.254 110.138 134.874 110.184 134.468 110.184C133.824 110.184 133.256 110.077 132.766 109.862C132.283 109.647 131.876 109.348 131.547 108.965C131.217 108.574 130.968 108.106 130.799 107.562C130.631 107.018 130.546 106.416 130.546 105.756V98.316H132.8V105.756C132.8 106.592 132.992 107.244 133.375 107.711C133.759 108.171 134.345 108.401 135.135 108.401C135.71 108.401 136.246 108.267 136.745 107.999C137.243 107.723 137.711 107.347 138.148 106.872V98.316H140.39ZM147.867 110.184C146.924 110.184 146.196 109.919 145.682 109.39C145.176 108.861 144.923 108.106 144.923 107.125V100.133H143.566C143.436 100.133 143.325 100.095 143.233 100.018C143.149 99.9337 143.106 99.811 143.106 99.65V98.7415L145.004 98.477L145.51 94.9925C145.541 94.8622 145.598 94.7625 145.682 94.6935C145.774 94.6168 145.889 94.5785 146.027 94.5785H147.166V98.5H150.478V100.133H147.166V106.975C147.166 107.435 147.277 107.78 147.499 108.01C147.729 108.233 148.021 108.344 148.373 108.344C148.58 108.344 148.757 108.317 148.902 108.263C149.056 108.21 149.186 108.152 149.293 108.091C149.401 108.022 149.493 107.961 149.569 107.907C149.646 107.853 149.715 107.826 149.776 107.826C149.853 107.826 149.911 107.846 149.949 107.884C149.995 107.915 150.041 107.968 150.087 108.045L150.754 109.126C150.386 109.463 149.949 109.724 149.443 109.908C148.937 110.092 148.412 110.184 147.867 110.184ZM155.349 100.558C155.725 99.7918 156.177 99.19 156.706 98.753C157.235 98.316 157.872 98.0975 158.615 98.0975C158.868 98.0975 159.106 98.1282 159.328 98.1895C159.558 98.2432 159.758 98.3275 159.926 98.4425L159.777 100.133C159.723 100.34 159.597 100.443 159.397 100.443C159.29 100.443 159.129 100.424 158.914 100.386C158.7 100.34 158.47 100.317 158.224 100.317C157.864 100.317 157.546 100.371 157.27 100.478C156.994 100.578 156.745 100.731 156.522 100.938C156.308 101.137 156.116 101.386 155.947 101.685C155.779 101.977 155.622 102.31 155.476 102.686V110H153.233V98.316H154.521C154.767 98.316 154.932 98.362 155.016 98.454C155.108 98.5383 155.173 98.6917 155.211 98.914L155.349 100.558ZM164.692 98.316V110H162.45V98.316H164.692ZM165.118 94.705C165.118 94.912 165.076 95.1113 164.991 95.303C164.907 95.487 164.792 95.6518 164.646 95.7975C164.508 95.9355 164.343 96.0467 164.152 96.131C163.96 96.2077 163.761 96.246 163.554 96.246C163.347 96.246 163.151 96.2077 162.967 96.131C162.783 96.0467 162.618 95.9355 162.473 95.7975C162.335 95.6518 162.224 95.487 162.139 95.303C162.063 95.1113 162.024 94.912 162.024 94.705C162.024 94.4903 162.063 94.291 162.139 94.107C162.224 93.9153 162.335 93.7505 162.473 93.6125C162.618 93.4668 162.783 93.3557 162.967 93.279C163.151 93.1947 163.347 93.1525 163.554 93.1525C163.761 93.1525 163.96 93.1947 164.152 93.279C164.343 93.3557 164.508 93.4668 164.646 93.6125C164.792 93.7505 164.907 93.9153 164.991 94.107C165.076 94.291 165.118 94.4903 165.118 94.705ZM177.542 108.332C177.082 108.9 176.53 109.325 175.886 109.609C175.249 109.893 174.575 110.065 173.862 110.127L173.666 110.817C174.379 110.97 174.889 111.181 175.196 111.449C175.502 111.725 175.656 112.07 175.656 112.484C175.656 112.737 175.59 112.963 175.46 113.163C175.337 113.362 175.165 113.531 174.943 113.669C174.72 113.807 174.448 113.914 174.126 113.991C173.812 114.067 173.467 114.106 173.091 114.106C172.777 114.106 172.478 114.075 172.194 114.014C171.918 113.96 171.657 113.879 171.412 113.772L171.619 113.071C171.665 112.925 171.761 112.852 171.907 112.852C171.953 112.852 172.002 112.864 172.056 112.887C172.117 112.917 172.19 112.944 172.275 112.967C172.359 112.998 172.455 113.025 172.562 113.048C172.677 113.078 172.811 113.094 172.965 113.094C173.271 113.094 173.501 113.032 173.655 112.91C173.808 112.787 173.885 112.634 173.885 112.45C173.885 112.174 173.727 111.978 173.413 111.863C173.106 111.756 172.662 111.664 172.079 111.587L172.562 110.127C171.903 110.058 171.293 109.873 170.734 109.574C170.174 109.275 169.687 108.873 169.273 108.367C168.867 107.853 168.545 107.244 168.307 106.538C168.077 105.833 167.962 105.036 167.962 104.146C167.962 103.28 168.081 102.479 168.319 101.743C168.564 101.007 168.92 100.374 169.388 99.8455C169.863 99.3088 170.446 98.891 171.136 98.592C171.826 98.2853 172.616 98.132 173.505 98.132C174.341 98.132 175.077 98.2662 175.713 98.5345C176.349 98.8028 176.917 99.1823 177.415 99.673L176.817 100.501C176.748 100.585 176.679 100.654 176.61 100.708C176.549 100.754 176.457 100.777 176.334 100.777C176.211 100.777 176.081 100.731 175.943 100.639C175.813 100.539 175.644 100.436 175.437 100.328C175.238 100.213 174.992 100.11 174.701 100.018C174.417 99.9183 174.065 99.8685 173.643 99.8685C173.091 99.8685 172.604 99.9682 172.183 100.167C171.761 100.367 171.408 100.65 171.125 101.018C170.849 101.386 170.638 101.835 170.492 102.364C170.346 102.893 170.274 103.487 170.274 104.146C170.274 104.829 170.35 105.438 170.504 105.975C170.657 106.504 170.875 106.952 171.159 107.32C171.443 107.681 171.788 107.957 172.194 108.148C172.6 108.332 173.053 108.424 173.551 108.424C174.034 108.424 174.433 108.367 174.747 108.252C175.061 108.129 175.322 107.999 175.529 107.861C175.736 107.723 175.909 107.596 176.047 107.481C176.185 107.359 176.326 107.297 176.472 107.297C176.656 107.297 176.798 107.366 176.898 107.504L177.542 108.332ZM186.604 104.813C185.692 104.844 184.917 104.917 184.281 105.032C183.645 105.139 183.127 105.285 182.728 105.469C182.33 105.653 182.042 105.871 181.866 106.124C181.69 106.37 181.601 106.646 181.601 106.952C181.601 107.244 181.647 107.497 181.739 107.711C181.839 107.918 181.969 108.091 182.13 108.229C182.299 108.359 182.495 108.455 182.717 108.516C182.939 108.578 183.181 108.608 183.441 108.608C183.786 108.608 184.101 108.574 184.384 108.505C184.676 108.436 184.948 108.34 185.201 108.217C185.454 108.087 185.695 107.93 185.925 107.746C186.155 107.562 186.382 107.351 186.604 107.113V104.813ZM180.026 99.949C180.678 99.328 181.383 98.8642 182.142 98.5575C182.909 98.2508 183.748 98.0975 184.66 98.0975C185.327 98.0975 185.918 98.2087 186.431 98.431C186.945 98.6457 187.378 98.9485 187.731 99.3395C188.084 99.7305 188.348 100.198 188.524 100.742C188.708 101.287 188.8 101.889 188.8 102.548V110H187.8C187.578 110 187.409 109.965 187.294 109.896C187.179 109.82 187.087 109.682 187.018 109.482L186.776 108.459C186.477 108.735 186.182 108.98 185.891 109.195C185.6 109.402 185.293 109.582 184.971 109.735C184.657 109.881 184.319 109.992 183.959 110.069C183.599 110.146 183.2 110.184 182.763 110.184C182.303 110.184 181.87 110.123 181.463 110C181.065 109.87 180.716 109.674 180.417 109.413C180.118 109.153 179.88 108.827 179.704 108.436C179.535 108.045 179.451 107.589 179.451 107.067C179.451 106.607 179.574 106.167 179.819 105.745C180.072 105.316 180.478 104.932 181.038 104.595C181.605 104.258 182.341 103.982 183.246 103.767C184.158 103.552 185.278 103.43 186.604 103.399V102.548C186.604 101.666 186.416 101.007 186.04 100.57C185.665 100.133 185.113 99.9145 184.384 99.9145C183.894 99.9145 183.48 99.9758 183.142 100.098C182.813 100.221 182.525 100.359 182.28 100.512C182.042 100.658 181.831 100.792 181.647 100.915C181.471 101.038 181.287 101.099 181.095 101.099C180.942 101.099 180.808 101.057 180.693 100.972C180.586 100.888 180.497 100.788 180.428 100.673L180.026 99.949ZM185.672 94.659C185.933 94.659 186.132 94.5823 186.27 94.429C186.416 94.2757 186.493 94.0303 186.5 93.693H187.869C187.869 94.0763 187.815 94.4252 187.708 94.7395C187.608 95.0538 187.466 95.326 187.282 95.556C187.098 95.7783 186.876 95.9508 186.615 96.0735C186.355 96.1962 186.067 96.2575 185.753 96.2575C185.485 96.2575 185.232 96.2038 184.994 96.0965C184.764 95.9892 184.545 95.8703 184.338 95.74C184.131 95.6097 183.932 95.4908 183.74 95.3835C183.556 95.2762 183.38 95.2225 183.211 95.2225C182.958 95.2225 182.759 95.303 182.613 95.464C182.475 95.625 182.403 95.8703 182.395 96.2H181.003C181.003 95.8243 181.053 95.4793 181.153 95.165C181.26 94.843 181.41 94.5708 181.601 94.3485C181.793 94.1262 182.015 93.9537 182.268 93.831C182.529 93.7007 182.817 93.6355 183.131 93.6355C183.407 93.6355 183.66 93.6892 183.89 93.7965C184.128 93.9038 184.35 94.0227 184.557 94.153C184.764 94.2757 184.959 94.3907 185.143 94.498C185.327 94.6053 185.504 94.659 185.672 94.659ZM197.472 98.132C198.331 98.132 199.105 98.2738 199.795 98.5575C200.493 98.8335 201.083 99.236 201.566 99.765C202.057 100.286 202.432 100.919 202.693 101.662C202.954 102.398 203.084 103.226 203.084 104.146C203.084 105.066 202.954 105.898 202.693 106.642C202.432 107.386 202.057 108.018 201.566 108.539C201.083 109.061 200.493 109.463 199.795 109.747C199.105 110.023 198.331 110.161 197.472 110.161C196.606 110.161 195.824 110.023 195.126 109.747C194.436 109.463 193.846 109.061 193.355 108.539C192.864 108.018 192.485 107.386 192.216 106.642C191.956 105.898 191.825 105.066 191.825 104.146C191.825 103.226 191.956 102.398 192.216 101.662C192.485 100.919 192.864 100.286 193.355 99.765C193.846 99.236 194.436 98.8335 195.126 98.5575C195.824 98.2738 196.606 98.132 197.472 98.132ZM197.472 108.413C198.576 108.413 199.4 108.041 199.944 107.297C200.489 106.554 200.761 105.507 200.761 104.158C200.761 102.809 200.489 101.762 199.944 101.018C199.4 100.267 198.576 99.8915 197.472 99.8915C196.353 99.8915 195.517 100.267 194.965 101.018C194.421 101.762 194.148 102.809 194.148 104.158C194.148 105.507 194.421 106.554 194.965 107.297C195.517 108.041 196.353 108.413 197.472 108.413ZM219.064 104.813C218.151 104.844 217.377 104.917 216.741 105.032C216.104 105.139 215.587 105.285 215.188 105.469C214.789 105.653 214.502 105.871 214.326 106.124C214.149 106.37 214.061 106.646 214.061 106.952C214.061 107.244 214.107 107.497 214.199 107.711C214.299 107.918 214.429 108.091 214.59 108.229C214.759 108.359 214.954 108.455 215.177 108.516C215.399 108.578 215.64 108.608 215.901 108.608C216.246 108.608 216.56 108.574 216.844 108.505C217.135 108.436 217.408 108.34 217.661 108.217C217.914 108.087 218.155 107.93 218.385 107.746C218.615 107.562 218.841 107.351 219.064 107.113V104.813ZM212.486 99.949C213.137 99.328 213.843 98.8642 214.602 98.5575C215.368 98.2508 216.208 98.0975 217.12 98.0975C217.787 98.0975 218.377 98.2087 218.891 98.431C219.405 98.6457 219.838 98.9485 220.191 99.3395C220.543 99.7305 220.808 100.198 220.984 100.742C221.168 101.287 221.26 101.889 221.26 102.548V110H220.26C220.037 110 219.869 109.965 219.754 109.896C219.639 109.82 219.547 109.682 219.478 109.482L219.236 108.459C218.937 108.735 218.642 108.98 218.351 109.195C218.059 109.402 217.753 109.582 217.431 109.735C217.116 109.881 216.779 109.992 216.419 110.069C216.058 110.146 215.66 110.184 215.223 110.184C214.763 110.184 214.329 110.123 213.923 110C213.524 109.87 213.176 109.674 212.877 109.413C212.578 109.153 212.34 108.827 212.164 108.436C211.995 108.045 211.911 107.589 211.911 107.067C211.911 106.607 212.033 106.167 212.279 105.745C212.532 105.316 212.938 104.932 213.498 104.595C214.065 104.258 214.801 103.982 215.706 103.767C216.618 103.552 217.737 103.43 219.064 103.399V102.548C219.064 101.666 218.876 101.007 218.5 100.57C218.124 100.133 217.572 99.9145 216.844 99.9145C216.353 99.9145 215.939 99.9758 215.602 100.098C215.272 100.221 214.985 100.359 214.74 100.512C214.502 100.658 214.291 100.792 214.107 100.915C213.931 101.038 213.747 101.099 213.555 101.099C213.402 101.099 213.268 101.057 213.153 100.972C213.045 100.888 212.957 100.788 212.888 100.673L212.486 99.949ZM233.14 100.501C233.071 100.585 233.002 100.654 232.933 100.708C232.872 100.754 232.78 100.777 232.657 100.777C232.534 100.777 232.404 100.731 232.266 100.639C232.136 100.539 231.967 100.436 231.76 100.328C231.561 100.213 231.315 100.11 231.024 100.018C230.74 99.9183 230.388 99.8685 229.966 99.8685C229.414 99.8685 228.927 99.9682 228.506 100.167C228.084 100.367 227.731 100.65 227.448 101.018C227.172 101.386 226.961 101.835 226.815 102.364C226.669 102.893 226.597 103.487 226.597 104.146C226.597 104.829 226.673 105.438 226.827 105.975C226.98 106.504 227.198 106.952 227.482 107.32C227.766 107.681 228.111 107.957 228.517 108.148C228.923 108.332 229.376 108.424 229.874 108.424C230.357 108.424 230.756 108.367 231.07 108.252C231.384 108.129 231.645 107.999 231.852 107.861C232.059 107.723 232.232 107.596 232.37 107.481C232.508 107.359 232.649 107.297 232.795 107.297C232.979 107.297 233.121 107.366 233.221 107.504L233.865 108.332C233.596 108.662 233.293 108.942 232.956 109.172C232.626 109.402 232.274 109.59 231.898 109.735C231.522 109.881 231.128 109.988 230.714 110.058C230.307 110.127 229.893 110.161 229.472 110.161C228.743 110.161 228.061 110.027 227.425 109.758C226.796 109.49 226.248 109.099 225.78 108.585C225.32 108.072 224.956 107.443 224.688 106.699C224.419 105.948 224.285 105.097 224.285 104.146C224.285 103.28 224.404 102.479 224.642 101.743C224.887 101.007 225.243 100.374 225.711 99.8455C226.186 99.3088 226.769 98.891 227.459 98.592C228.149 98.2853 228.939 98.132 229.828 98.132C230.664 98.132 231.4 98.2662 232.036 98.5345C232.672 98.8028 233.24 99.1823 233.738 99.673L233.14 100.501ZM244.185 102.858C244.185 102.414 244.12 102.004 243.99 101.628C243.867 101.252 243.683 100.926 243.438 100.65C243.192 100.374 242.893 100.16 242.541 100.006C242.188 99.8532 241.782 99.7765 241.322 99.7765C240.379 99.7765 239.635 100.049 239.091 100.593C238.554 101.137 238.213 101.892 238.067 102.858H244.185ZM246.037 108.332C245.761 108.654 245.443 108.934 245.082 109.172C244.722 109.402 244.339 109.59 243.932 109.735C243.526 109.881 243.104 109.988 242.667 110.058C242.238 110.127 241.812 110.161 241.391 110.161C240.586 110.161 239.838 110.027 239.148 109.758C238.466 109.482 237.872 109.084 237.366 108.562C236.867 108.033 236.476 107.382 236.193 106.607C235.917 105.825 235.779 104.928 235.779 103.916C235.779 103.104 235.905 102.349 236.158 101.651C236.411 100.946 236.772 100.332 237.239 99.811C237.715 99.2897 238.293 98.8795 238.976 98.5805C239.658 98.2815 240.425 98.132 241.276 98.132C241.989 98.132 242.644 98.2508 243.242 98.4885C243.848 98.7185 244.369 99.0558 244.806 99.5005C245.243 99.9452 245.584 100.493 245.83 101.145C246.083 101.797 246.209 102.54 246.209 103.376C246.209 103.721 246.171 103.955 246.094 104.077C246.018 104.192 245.876 104.25 245.669 104.25H238.01C238.033 104.948 238.132 105.557 238.309 106.078C238.485 106.592 238.727 107.021 239.033 107.366C239.348 107.711 239.719 107.968 240.149 108.137C240.578 108.306 241.057 108.39 241.586 108.39C242.085 108.39 242.514 108.332 242.874 108.217C243.242 108.102 243.557 107.98 243.817 107.849C244.086 107.711 244.308 107.585 244.484 107.47C244.668 107.355 244.829 107.297 244.967 107.297C245.151 107.297 245.293 107.366 245.393 107.504L246.037 108.332ZM256.198 100.328C256.137 100.428 256.072 100.501 256.003 100.547C255.934 100.585 255.845 100.604 255.738 100.604C255.615 100.604 255.477 100.562 255.324 100.478C255.178 100.394 254.998 100.302 254.784 100.202C254.577 100.102 254.331 100.01 254.048 99.926C253.764 99.8417 253.427 99.7995 253.036 99.7995C252.714 99.7995 252.418 99.8417 252.15 99.926C251.889 100.003 251.667 100.114 251.483 100.259C251.299 100.397 251.157 100.566 251.058 100.765C250.958 100.957 250.908 101.164 250.908 101.386C250.908 101.678 250.992 101.919 251.161 102.111C251.337 102.303 251.564 102.467 251.84 102.605C252.123 102.743 252.441 102.87 252.794 102.985C253.154 103.092 253.519 103.207 253.887 103.33C254.262 103.453 254.626 103.594 254.979 103.755C255.339 103.909 255.658 104.104 255.934 104.342C256.217 104.572 256.443 104.852 256.612 105.181C256.788 105.511 256.877 105.914 256.877 106.389C256.877 106.933 256.777 107.439 256.578 107.907C256.386 108.367 256.098 108.766 255.715 109.103C255.339 109.44 254.872 109.705 254.312 109.896C253.752 110.088 253.112 110.184 252.392 110.184C251.587 110.184 250.843 110.05 250.161 109.781C249.478 109.513 248.907 109.172 248.447 108.758L248.976 107.895C249.037 107.788 249.114 107.708 249.206 107.654C249.298 107.593 249.421 107.562 249.574 107.562C249.72 107.562 249.869 107.616 250.023 107.723C250.176 107.83 250.36 107.949 250.575 108.079C250.789 108.202 251.05 108.317 251.357 108.424C251.663 108.524 252.047 108.574 252.507 108.574C252.89 108.574 253.223 108.528 253.507 108.436C253.791 108.336 254.025 108.206 254.209 108.045C254.4 107.876 254.542 107.685 254.634 107.47C254.726 107.255 254.772 107.029 254.772 106.791C254.772 106.485 254.684 106.232 254.508 106.032C254.339 105.825 254.113 105.649 253.829 105.503C253.553 105.358 253.235 105.231 252.875 105.124C252.514 105.017 252.146 104.902 251.771 104.779C251.395 104.656 251.027 104.514 250.667 104.353C250.306 104.192 249.984 103.989 249.701 103.744C249.425 103.499 249.198 103.2 249.022 102.847C248.853 102.494 248.769 102.065 248.769 101.559C248.769 101.107 248.861 100.673 249.045 100.259C249.237 99.8455 249.509 99.4813 249.862 99.167C250.222 98.8527 250.663 98.6035 251.184 98.4195C251.713 98.2278 252.315 98.132 252.99 98.132C253.764 98.132 254.462 98.2547 255.083 98.5C255.711 98.7453 256.248 99.0827 256.693 99.512L256.198 100.328ZM266.883 100.328C266.822 100.428 266.757 100.501 266.688 100.547C266.619 100.585 266.531 100.604 266.423 100.604C266.301 100.604 266.163 100.562 266.009 100.478C265.864 100.394 265.683 100.302 265.469 100.202C265.262 100.102 265.016 100.01 264.733 99.926C264.449 99.8417 264.112 99.7995 263.721 99.7995C263.399 99.7995 263.104 99.8417 262.835 99.926C262.575 100.003 262.352 100.114 262.168 100.259C261.984 100.397 261.842 100.566 261.743 100.765C261.643 100.957 261.593 101.164 261.593 101.386C261.593 101.678 261.678 101.919 261.846 102.111C262.023 102.303 262.249 102.467 262.525 102.605C262.808 102.743 263.127 102.87 263.479 102.985C263.84 103.092 264.204 103.207 264.572 103.33C264.947 103.453 265.312 103.594 265.664 103.755C266.025 103.909 266.343 104.104 266.619 104.342C266.902 104.572 267.129 104.852 267.297 105.181C267.474 105.511 267.562 105.914 267.562 106.389C267.562 106.933 267.462 107.439 267.263 107.907C267.071 108.367 266.784 108.766 266.4 109.103C266.025 109.44 265.557 109.705 264.997 109.896C264.438 110.088 263.797 110.184 263.077 110.184C262.272 110.184 261.528 110.05 260.846 109.781C260.163 109.513 259.592 109.172 259.132 108.758L259.661 107.895C259.723 107.788 259.799 107.708 259.891 107.654C259.983 107.593 260.106 107.562 260.259 107.562C260.405 107.562 260.554 107.616 260.708 107.723C260.861 107.83 261.045 107.949 261.26 108.079C261.474 108.202 261.735 108.317 262.042 108.424C262.348 108.524 262.732 108.574 263.192 108.574C263.575 108.574 263.909 108.528 264.192 108.436C264.476 108.336 264.71 108.206 264.894 108.045C265.085 107.876 265.227 107.685 265.319 107.47C265.411 107.255 265.457 107.029 265.457 106.791C265.457 106.485 265.369 106.232 265.193 106.032C265.024 105.825 264.798 105.649 264.514 105.503C264.238 105.358 263.92 105.231 263.56 105.124C263.199 105.017 262.831 104.902 262.456 104.779C262.08 104.656 261.712 104.514 261.352 104.353C260.991 104.192 260.669 103.989 260.386 103.744C260.11 103.499 259.884 103.2 259.707 102.847C259.539 102.494 259.454 102.065 259.454 101.559C259.454 101.107 259.546 100.673 259.73 100.259C259.922 99.8455 260.194 99.4813 260.547 99.167C260.907 98.8527 261.348 98.6035 261.869 98.4195C262.398 98.2278 263 98.132 263.675 98.132C264.449 98.132 265.147 98.2547 265.768 98.5C266.396 98.7453 266.933 99.0827 267.378 99.512L266.883 100.328ZM273.037 98.316V110H270.783V98.316H273.037ZM275.475 93.302L272.75 96.269C272.635 96.3993 272.524 96.4913 272.416 96.545C272.309 96.591 272.167 96.614 271.991 96.614H270.634L272.336 93.831C272.443 93.6547 272.558 93.5243 272.681 93.44C272.811 93.348 273.011 93.302 273.279 93.302H275.475ZM287.106 98.316L282.368 110H280.344L275.606 98.316H277.457C277.633 98.316 277.779 98.3582 277.894 98.4425C278.009 98.5268 278.086 98.6342 278.124 98.7645L280.919 105.94C281.018 106.239 281.103 106.538 281.172 106.837C281.248 107.129 281.317 107.42 281.379 107.711C281.44 107.42 281.509 107.129 281.586 106.837C281.662 106.546 281.754 106.247 281.862 105.94L284.691 98.7645C284.737 98.6342 284.817 98.5268 284.932 98.4425C285.047 98.3582 285.185 98.316 285.346 98.316H287.106ZM296.982 102.858C296.982 102.414 296.917 102.004 296.786 101.628C296.664 101.252 296.48 100.926 296.234 100.65C295.989 100.374 295.69 100.16 295.337 100.006C294.985 99.8532 294.578 99.7765 294.118 99.7765C293.175 99.7765 292.432 100.049 291.887 100.593C291.351 101.137 291.01 101.892 290.864 102.858H296.982ZM298.833 108.332C298.557 108.654 298.239 108.934 297.879 109.172C297.519 109.402 297.135 109.59 296.729 109.735C296.323 109.881 295.901 109.988 295.464 110.058C295.035 110.127 294.609 110.161 294.187 110.161C293.382 110.161 292.635 110.027 291.945 109.758C291.263 109.482 290.668 109.084 290.162 108.562C289.664 108.033 289.273 107.382 288.989 106.607C288.713 105.825 288.575 104.928 288.575 103.916C288.575 103.104 288.702 102.349 288.955 101.651C289.208 100.946 289.568 100.332 290.036 99.811C290.511 99.2897 291.09 98.8795 291.772 98.5805C292.455 98.2815 293.221 98.132 294.072 98.132C294.785 98.132 295.441 98.2508 296.039 98.4885C296.645 98.7185 297.166 99.0558 297.603 99.5005C298.04 99.9452 298.381 100.493 298.626 101.145C298.879 101.797 299.006 102.54 299.006 103.376C299.006 103.721 298.968 103.955 298.891 104.077C298.814 104.192 298.672 104.25 298.465 104.25H290.806C290.829 104.948 290.929 105.557 291.105 106.078C291.282 106.592 291.523 107.021 291.83 107.366C292.144 107.711 292.516 107.968 292.945 108.137C293.375 108.306 293.854 108.39 294.383 108.39C294.881 108.39 295.311 108.332 295.671 108.217C296.039 108.102 296.353 107.98 296.614 107.849C296.882 107.711 297.105 107.585 297.281 107.47C297.465 107.355 297.626 107.297 297.764 107.297C297.948 107.297 298.09 107.366 298.189 107.504L298.833 108.332ZM304.406 93.026V110H302.152V93.026H304.406ZM309.311 110C309.104 110 308.913 109.962 308.736 109.885C308.568 109.808 308.418 109.705 308.288 109.574C308.165 109.436 308.069 109.275 308 109.091C307.931 108.907 307.897 108.708 307.897 108.493C307.897 108.309 307.931 108.137 308 107.976C308.069 107.807 308.165 107.662 308.288 107.539C308.418 107.416 308.571 107.32 308.748 107.251C308.924 107.175 309.12 107.136 309.334 107.136C309.58 107.136 309.794 107.182 309.978 107.274C310.17 107.359 310.327 107.481 310.45 107.642C310.58 107.796 310.676 107.976 310.737 108.183C310.799 108.39 310.829 108.612 310.829 108.85C310.829 109.195 310.779 109.559 310.68 109.942C310.58 110.326 310.434 110.705 310.243 111.081C310.051 111.457 309.813 111.821 309.53 112.174C309.246 112.526 308.924 112.852 308.564 113.151L308.184 112.795C308.069 112.687 308.012 112.568 308.012 112.438C308.012 112.384 308.027 112.327 308.058 112.266C308.096 112.212 308.142 112.158 308.196 112.105C308.272 112.02 308.372 111.909 308.495 111.771C308.617 111.633 308.736 111.472 308.851 111.288C308.974 111.112 309.085 110.912 309.185 110.69C309.292 110.475 309.369 110.245 309.415 110H309.311ZM327.641 100.328C327.58 100.428 327.514 100.501 327.445 100.547C327.376 100.585 327.288 100.604 327.181 100.604C327.058 100.604 326.92 100.562 326.767 100.478C326.621 100.394 326.441 100.302 326.226 100.202C326.019 100.102 325.774 100.01 325.49 99.926C325.207 99.8417 324.869 99.7995 324.478 99.7995C324.156 99.7995 323.861 99.8417 323.593 99.926C323.332 100.003 323.11 100.114 322.926 100.259C322.742 100.397 322.6 100.566 322.5 100.765C322.401 100.957 322.351 101.164 322.351 101.386C322.351 101.678 322.435 101.919 322.604 102.111C322.78 102.303 323.006 102.467 323.282 102.605C323.566 102.743 323.884 102.87 324.237 102.985C324.597 103.092 324.961 103.207 325.329 103.33C325.705 103.453 326.069 103.594 326.422 103.755C326.782 103.909 327.1 104.104 327.376 104.342C327.66 104.572 327.886 104.852 328.055 105.181C328.231 105.511 328.319 105.914 328.319 106.389C328.319 106.933 328.22 107.439 328.02 107.907C327.829 108.367 327.541 108.766 327.158 109.103C326.782 109.44 326.315 109.705 325.755 109.896C325.195 110.088 324.555 110.184 323.834 110.184C323.029 110.184 322.286 110.05 321.603 109.781C320.921 109.513 320.35 109.172 319.89 108.758L320.419 107.895C320.48 107.788 320.557 107.708 320.649 107.654C320.741 107.593 320.864 107.562 321.017 107.562C321.163 107.562 321.312 107.616 321.465 107.723C321.619 107.83 321.803 107.949 322.017 108.079C322.232 108.202 322.493 108.317 322.799 108.424C323.106 108.524 323.489 108.574 323.949 108.574C324.333 108.574 324.666 108.528 324.95 108.436C325.234 108.336 325.467 108.206 325.651 108.045C325.843 107.876 325.985 107.685 326.077 107.47C326.169 107.255 326.215 107.029 326.215 106.791C326.215 106.485 326.127 106.232 325.95 106.032C325.782 105.825 325.556 105.649 325.272 105.503C324.996 105.358 324.678 105.231 324.317 105.124C323.957 105.017 323.589 104.902 323.213 104.779C322.838 104.656 322.47 104.514 322.109 104.353C321.749 104.192 321.427 103.989 321.143 103.744C320.867 103.499 320.641 103.2 320.465 102.847C320.296 102.494 320.212 102.065 320.212 101.559C320.212 101.107 320.304 100.673 320.488 100.259C320.68 99.8455 320.952 99.4813 321.304 99.167C321.665 98.8527 322.106 98.6035 322.627 98.4195C323.156 98.2278 323.758 98.132 324.432 98.132C325.207 98.132 325.904 98.2547 326.525 98.5C327.154 98.7453 327.691 99.0827 328.135 99.512L327.641 100.328ZM337.717 104.813C336.804 104.844 336.03 104.917 335.394 105.032C334.757 105.139 334.24 105.285 333.841 105.469C333.442 105.653 333.155 105.871 332.979 106.124C332.802 106.37 332.714 106.646 332.714 106.952C332.714 107.244 332.76 107.497 332.852 107.711C332.952 107.918 333.082 108.091 333.243 108.229C333.412 108.359 333.607 108.455 333.83 108.516C334.052 108.578 334.293 108.608 334.554 108.608C334.899 108.608 335.213 108.574 335.497 108.505C335.788 108.436 336.061 108.34 336.314 108.217C336.567 108.087 336.808 107.93 337.038 107.746C337.268 107.562 337.494 107.351 337.717 107.113V104.813ZM331.139 99.949C331.79 99.328 332.496 98.8642 333.255 98.5575C334.021 98.2508 334.861 98.0975 335.773 98.0975C336.44 98.0975 337.03 98.2087 337.544 98.431C338.058 98.6457 338.491 98.9485 338.844 99.3395C339.196 99.7305 339.461 100.198 339.637 100.742C339.821 101.287 339.913 101.889 339.913 102.548V110H338.913C338.69 110 338.522 109.965 338.407 109.896C338.292 109.82 338.2 109.682 338.131 109.482L337.889 108.459C337.59 108.735 337.295 108.98 337.004 109.195C336.712 109.402 336.406 109.582 336.084 109.735C335.769 109.881 335.432 109.992 335.072 110.069C334.711 110.146 334.313 110.184 333.876 110.184C333.416 110.184 332.982 110.123 332.576 110C332.177 109.87 331.829 109.674 331.53 109.413C331.231 109.153 330.993 108.827 330.817 108.436C330.648 108.045 330.564 107.589 330.564 107.067C330.564 106.607 330.686 106.167 330.932 105.745C331.185 105.316 331.591 104.932 332.151 104.595C332.718 104.258 333.454 103.982 334.359 103.767C335.271 103.552 336.39 103.43 337.717 103.399V102.548C337.717 101.666 337.529 101.007 337.153 100.57C336.777 100.133 336.225 99.9145 335.497 99.9145C335.006 99.9145 334.592 99.9758 334.255 100.098C333.925 100.221 333.638 100.359 333.393 100.512C333.155 100.658 332.944 100.792 332.76 100.915C332.584 101.038 332.4 101.099 332.208 101.099C332.055 101.099 331.921 101.057 331.806 100.972C331.698 100.888 331.61 100.788 331.541 100.673L331.139 99.949ZM353.323 98.316V110H351.977C351.67 110 351.471 109.85 351.379 109.551L351.218 108.378C350.965 108.647 350.701 108.892 350.425 109.114C350.149 109.337 349.853 109.528 349.539 109.689C349.225 109.843 348.891 109.962 348.539 110.046C348.186 110.138 347.806 110.184 347.4 110.184C346.756 110.184 346.189 110.077 345.698 109.862C345.215 109.647 344.809 109.348 344.479 108.965C344.149 108.574 343.9 108.106 343.732 107.562C343.563 107.018 343.479 106.416 343.479 105.756V98.316H345.733V105.756C345.733 106.592 345.924 107.244 346.308 107.711C346.691 108.171 347.277 108.401 348.067 108.401C348.642 108.401 349.179 108.267 349.677 107.999C350.175 107.723 350.643 107.347 351.08 106.872V98.316H353.323ZM351.977 93.302L349.252 96.269C349.137 96.3993 349.025 96.4913 348.918 96.545C348.811 96.591 348.669 96.614 348.493 96.614H347.136L348.838 93.831C348.945 93.6547 349.06 93.5243 349.183 93.44C349.313 93.348 349.512 93.302 349.781 93.302H351.977ZM364.675 101.145C364.307 100.662 363.909 100.325 363.479 100.133C363.058 99.9413 362.582 99.8455 362.053 99.8455C361.026 99.8455 360.229 100.217 359.661 100.961C359.102 101.697 358.822 102.774 358.822 104.193C358.822 104.936 358.883 105.572 359.006 106.101C359.136 106.623 359.32 107.052 359.558 107.389C359.803 107.719 360.102 107.964 360.455 108.125C360.807 108.279 361.206 108.355 361.651 108.355C362.302 108.355 362.866 108.21 363.341 107.918C363.817 107.627 364.261 107.217 364.675 106.688V101.145ZM366.929 93.026V110H365.572C365.258 110 365.062 109.85 364.986 109.551L364.79 108.206C364.292 108.796 363.725 109.272 363.088 109.632C362.46 109.985 361.731 110.161 360.903 110.161C360.236 110.161 359.631 110.031 359.086 109.77C358.55 109.509 358.09 109.13 357.706 108.631C357.323 108.125 357.028 107.501 356.821 106.757C356.614 106.013 356.51 105.158 356.51 104.193C356.51 103.326 356.625 102.521 356.855 101.777C357.085 101.034 357.419 100.39 357.856 99.8455C358.293 99.3012 358.822 98.8757 359.443 98.569C360.064 98.2547 360.765 98.0975 361.547 98.0975C362.253 98.0975 362.851 98.2125 363.341 98.4425C363.84 98.6725 364.284 98.9983 364.675 99.42V93.026H366.929ZM378.487 102.858C378.487 102.414 378.422 102.004 378.292 101.628C378.169 101.252 377.985 100.926 377.74 100.65C377.494 100.374 377.195 100.16 376.843 100.006C376.49 99.8532 376.084 99.7765 375.624 99.7765C374.681 99.7765 373.937 100.049 373.393 100.593C372.856 101.137 372.515 101.892 372.369 102.858H378.487ZM380.339 108.332C380.063 108.654 379.745 108.934 379.384 109.172C379.024 109.402 378.641 109.59 378.234 109.735C377.828 109.881 377.406 109.988 376.969 110.058C376.54 110.127 376.114 110.161 375.693 110.161C374.888 110.161 374.14 110.027 373.45 109.758C372.768 109.482 372.174 109.084 371.668 108.562C371.169 108.033 370.778 107.382 370.495 106.607C370.219 105.825 370.081 104.928 370.081 103.916C370.081 103.104 370.207 102.349 370.46 101.651C370.713 100.946 371.074 100.332 371.541 99.811C372.017 99.2897 372.595 98.8795 373.278 98.5805C373.96 98.2815 374.727 98.132 375.578 98.132C376.291 98.132 376.946 98.2508 377.544 98.4885C378.15 98.7185 378.671 99.0558 379.108 99.5005C379.545 99.9452 379.886 100.493 380.132 101.145C380.385 101.797 380.511 102.54 380.511 103.376C380.511 103.721 380.473 103.955 380.396 104.077C380.32 104.192 380.178 104.25 379.971 104.25H372.312C372.335 104.948 372.434 105.557 372.611 106.078C372.787 106.592 373.029 107.021 373.335 107.366C373.65 107.711 374.021 107.968 374.451 108.137C374.88 108.306 375.359 108.39 375.888 108.39C376.387 108.39 376.816 108.332 377.176 108.217C377.544 108.102 377.859 107.98 378.119 107.849C378.388 107.711 378.61 107.585 378.786 107.47C378.97 107.355 379.131 107.297 379.269 107.297C379.453 107.297 379.595 107.366 379.695 107.504L380.339 108.332ZM392.465 98.316V110H390.223V98.316H392.465ZM392.891 94.705C392.891 94.912 392.848 95.1113 392.764 95.303C392.68 95.487 392.565 95.6518 392.419 95.7975C392.281 95.9355 392.116 96.0467 391.925 96.131C391.733 96.2077 391.534 96.246 391.327 96.246C391.12 96.246 390.924 96.2077 390.74 96.131C390.556 96.0467 390.391 95.9355 390.246 95.7975C390.108 95.6518 389.996 95.487 389.912 95.303C389.835 95.1113 389.797 94.912 389.797 94.705C389.797 94.4903 389.835 94.291 389.912 94.107C389.996 93.9153 390.108 93.7505 390.246 93.6125C390.391 93.4668 390.556 93.3557 390.74 93.279C390.924 93.1947 391.12 93.1525 391.327 93.1525C391.534 93.1525 391.733 93.1947 391.925 93.279C392.116 93.3557 392.281 93.4668 392.419 93.6125C392.565 93.7505 392.68 93.9153 392.764 94.107C392.848 94.291 392.891 94.4903 392.891 94.705ZM396.402 110V98.316H397.747C398.062 98.316 398.257 98.4655 398.334 98.7645L398.495 99.88C398.924 99.3663 399.399 98.9485 399.921 98.6265C400.45 98.2968 401.067 98.132 401.772 98.132C402.547 98.132 403.175 98.3467 403.658 98.776C404.141 99.1977 404.494 99.7727 404.716 100.501C404.885 100.087 405.103 99.7305 405.372 99.4315C405.64 99.1325 405.939 98.8872 406.269 98.6955C406.598 98.5038 406.947 98.362 407.315 98.27C407.691 98.178 408.07 98.132 408.454 98.132C409.075 98.132 409.627 98.2317 410.11 98.431C410.6 98.6227 411.014 98.9063 411.352 99.282C411.689 99.6577 411.946 100.121 412.122 100.673C412.299 101.225 412.387 101.854 412.387 102.559V110H410.133V102.559C410.133 101.685 409.941 101.026 409.558 100.581C409.182 100.137 408.63 99.9145 407.902 99.9145C407.58 99.9145 407.273 99.972 406.982 100.087C406.69 100.194 406.434 100.359 406.211 100.581C405.997 100.804 405.824 101.08 405.694 101.409C405.571 101.739 405.51 102.122 405.51 102.559V110H403.256V102.559C403.256 101.655 403.076 100.988 402.715 100.558C402.355 100.129 401.826 99.9145 401.128 99.9145C400.645 99.9145 400.197 100.041 399.783 100.294C399.369 100.547 398.989 100.892 398.644 101.329V110H396.402ZM418.336 107.125C418.704 107.608 419.103 107.945 419.532 108.137C419.962 108.329 420.429 108.424 420.935 108.424C421.978 108.424 422.779 108.053 423.339 107.309C423.906 106.565 424.19 105.442 424.19 103.939C424.19 102.552 423.941 101.536 423.442 100.892C422.944 100.24 422.239 99.9145 421.326 99.9145C420.682 99.9145 420.123 100.06 419.647 100.351C419.18 100.643 418.743 101.057 418.336 101.593V107.125ZM418.336 99.926C418.819 99.3893 419.367 98.9562 419.981 98.6265C420.594 98.2968 421.292 98.132 422.074 98.132C422.756 98.132 423.369 98.2662 423.914 98.5345C424.466 98.7952 424.933 99.1747 425.317 99.673C425.7 100.164 425.995 100.762 426.202 101.467C426.409 102.172 426.513 102.97 426.513 103.859C426.513 104.802 426.394 105.661 426.156 106.435C425.926 107.209 425.593 107.872 425.156 108.424C424.726 108.976 424.201 109.406 423.58 109.712C422.959 110.012 422.262 110.161 421.487 110.161C421.112 110.161 420.767 110.123 420.452 110.046C420.138 109.977 419.847 109.873 419.578 109.735C419.318 109.597 419.076 109.429 418.854 109.229C418.631 109.03 418.421 108.804 418.221 108.551L418.118 109.528C418.056 109.843 417.865 110 417.543 110H416.094V93.026H418.336V99.926ZM435.978 104.813C435.065 104.844 434.291 104.917 433.655 105.032C433.018 105.139 432.501 105.285 432.102 105.469C431.704 105.653 431.416 105.871 431.24 106.124C431.063 106.37 430.975 106.646 430.975 106.952C430.975 107.244 431.021 107.497 431.113 107.711C431.213 107.918 431.343 108.091 431.504 108.229C431.673 108.359 431.868 108.455 432.091 108.516C432.313 108.578 432.555 108.608 432.815 108.608C433.16 108.608 433.475 108.574 433.758 108.505C434.05 108.436 434.322 108.34 434.575 108.217C434.828 108.087 435.069 107.93 435.299 107.746C435.529 107.562 435.755 107.351 435.978 107.113V104.813ZM429.4 99.949C430.051 99.328 430.757 98.8642 431.516 98.5575C432.282 98.2508 433.122 98.0975 434.034 98.0975C434.701 98.0975 435.292 98.2087 435.805 98.431C436.319 98.6457 436.752 98.9485 437.105 99.3395C437.457 99.7305 437.722 100.198 437.898 100.742C438.082 101.287 438.174 101.889 438.174 102.548V110H437.174C436.951 110 436.783 109.965 436.668 109.896C436.553 109.82 436.461 109.682 436.392 109.482L436.15 108.459C435.851 108.735 435.556 108.98 435.265 109.195C434.973 109.402 434.667 109.582 434.345 109.735C434.03 109.881 433.693 109.992 433.333 110.069C432.972 110.146 432.574 110.184 432.137 110.184C431.677 110.184 431.244 110.123 430.837 110C430.439 109.87 430.09 109.674 429.791 109.413C429.492 109.153 429.254 108.827 429.078 108.436C428.909 108.045 428.825 107.589 428.825 107.067C428.825 106.607 428.947 106.167 429.193 105.745C429.446 105.316 429.852 104.932 430.412 104.595C430.979 104.258 431.715 103.982 432.62 103.767C433.532 103.552 434.651 103.43 435.978 103.399V102.548C435.978 101.666 435.79 101.007 435.414 100.57C435.039 100.133 434.487 99.9145 433.758 99.9145C433.268 99.9145 432.854 99.9758 432.516 100.098C432.187 100.221 431.899 100.359 431.654 100.512C431.416 100.658 431.205 100.792 431.021 100.915C430.845 101.038 430.661 101.099 430.469 101.099C430.316 101.099 430.182 101.057 430.067 100.972C429.959 100.888 429.871 100.788 429.802 100.673L429.4 99.949ZM452.761 110H450.507V100.133H444.642V106.975C444.642 107.435 444.753 107.78 444.975 108.01C445.205 108.233 445.496 108.344 445.849 108.344C446.056 108.344 446.232 108.317 446.378 108.263C446.531 108.21 446.662 108.152 446.769 108.091C446.876 108.022 446.968 107.961 447.045 107.907C447.122 107.853 447.191 107.826 447.252 107.826C447.329 107.826 447.386 107.846 447.425 107.884C447.471 107.915 447.517 107.968 447.563 108.045L448.23 109.126C447.862 109.463 447.425 109.724 446.919 109.908C446.413 110.092 445.887 110.184 445.343 110.184C444.4 110.184 443.672 109.919 443.158 109.39C442.652 108.861 442.399 108.106 442.399 107.125V100.133H441.042C440.912 100.133 440.801 100.095 440.709 100.018C440.624 99.9337 440.582 99.811 440.582 99.65V98.7415L442.491 98.477L442.986 94.9925C443.016 94.8622 443.074 94.7625 443.158 94.6935C443.25 94.6168 443.365 94.5785 443.503 94.5785H444.642V98.5H452.761V110ZM455.222 93.302L452.496 96.269C452.381 96.3993 452.27 96.4913 452.163 96.545C452.055 96.591 451.913 96.614 451.737 96.614H450.38L452.082 93.831C452.189 93.6547 452.304 93.5243 452.427 93.44C452.557 93.348 452.757 93.302 453.025 93.302H455.222ZM466.85 98.316L462.112 110H460.088L455.35 98.316H457.201C457.378 98.316 457.523 98.3582 457.638 98.4425C457.753 98.5268 457.83 98.6342 457.868 98.7645L460.663 105.94C460.762 106.239 460.847 106.538 460.916 106.837C460.992 107.129 461.061 107.42 461.123 107.711C461.184 107.42 461.253 107.129 461.33 106.837C461.406 106.546 461.498 106.247 461.606 105.94L464.435 98.7645C464.481 98.6342 464.561 98.5268 464.676 98.4425C464.791 98.3582 464.929 98.316 465.09 98.316H466.85ZM476.726 102.858C476.726 102.414 476.661 102.004 476.531 101.628C476.408 101.252 476.224 100.926 475.979 100.65C475.733 100.374 475.434 100.16 475.082 100.006C474.729 99.8532 474.323 99.7765 473.863 99.7765C472.92 99.7765 472.176 100.049 471.632 100.593C471.095 101.137 470.754 101.892 470.608 102.858H476.726ZM478.578 108.332C478.302 108.654 477.983 108.934 477.623 109.172C477.263 109.402 476.879 109.59 476.473 109.735C476.067 109.881 475.645 109.988 475.208 110.058C474.779 110.127 474.353 110.161 473.932 110.161C473.127 110.161 472.379 110.027 471.689 109.758C471.007 109.482 470.413 109.084 469.907 108.562C469.408 108.033 469.017 107.382 468.734 106.607C468.458 105.825 468.32 104.928 468.32 103.916C468.32 103.104 468.446 102.349 468.699 101.651C468.952 100.946 469.312 100.332 469.78 99.811C470.255 99.2897 470.834 98.8795 471.517 98.5805C472.199 98.2815 472.966 98.132 473.817 98.132C474.53 98.132 475.185 98.2508 475.783 98.4885C476.389 98.7185 476.91 99.0558 477.347 99.5005C477.784 99.9452 478.125 100.493 478.371 101.145C478.624 101.797 478.75 102.54 478.75 103.376C478.75 103.721 478.712 103.955 478.635 104.077C478.558 104.192 478.417 104.25 478.21 104.25H470.551C470.574 104.948 470.673 105.557 470.85 106.078C471.026 106.592 471.267 107.021 471.574 107.366C471.888 107.711 472.26 107.968 472.69 108.137C473.119 108.306 473.598 108.39 474.127 108.39C474.625 108.39 475.055 108.332 475.415 108.217C475.783 108.102 476.097 107.98 476.358 107.849C476.626 107.711 476.849 107.585 477.025 107.47C477.209 107.355 477.37 107.297 477.508 107.297C477.692 107.297 477.834 107.366 477.934 107.504L478.578 108.332ZM484.15 93.026V110H481.896V93.026H484.15ZM490.677 93.486V100.064C490.677 100.409 490.669 100.746 490.654 101.076C490.638 101.406 490.615 101.739 490.585 102.076C490.562 102.406 490.531 102.747 490.493 103.1C490.454 103.453 490.412 103.824 490.366 104.215H488.848C488.802 103.824 488.76 103.453 488.722 103.1C488.683 102.747 488.649 102.406 488.618 102.076C488.595 101.739 488.576 101.406 488.561 101.076C488.545 100.746 488.538 100.409 488.538 100.064V93.486H490.677ZM488.055 108.654C488.055 108.447 488.093 108.252 488.17 108.068C488.246 107.884 488.354 107.723 488.492 107.585C488.63 107.447 488.791 107.34 488.975 107.263C489.159 107.179 489.358 107.136 489.573 107.136C489.78 107.136 489.975 107.179 490.159 107.263C490.343 107.34 490.504 107.447 490.642 107.585C490.78 107.723 490.888 107.884 490.964 108.068C491.049 108.252 491.091 108.447 491.091 108.654C491.091 108.869 491.049 109.068 490.964 109.252C490.888 109.436 490.78 109.597 490.642 109.735C490.504 109.873 490.343 109.981 490.159 110.058C489.975 110.134 489.78 110.173 489.573 110.173C489.358 110.173 489.159 110.134 488.975 110.058C488.791 109.981 488.63 109.873 488.492 109.735C488.354 109.597 488.246 109.436 488.17 109.252C488.093 109.068 488.055 108.869 488.055 108.654Z" fill="#F37F30"/>
<path d="M45.8545 24.0791C45.1715 18.5311 46.8108 12.952 50.4386 8.47816C54.0663 4.00436 59.4096 0.972446 65.38 0C65.6498 1.01177 67.7391 9.41755 61.5102 16.7122C55.6785 23.5281 47.1199 24.0249 45.8545 24.0791Z" fill="#730202"/>
<path d="M40.58 23.1085C40.1364 21.4751 39.5821 19.8663 38.9202 18.2905C37.8631 15.7719 37.1021 14.8056 37.6384 14.2643C38.0112 13.8886 38.7977 13.9199 39.3033 14.0407C41.3461 14.5372 42.0815 17.3779 42.5003 19.0823C43.1768 22.18 43.2631 25.3544 42.7556 28.4768C42.6382 28.6736 42.4339 28.9778 42.204 28.9644C41.5401 28.9241 41.5401 26.5129 40.58 23.1085Z" fill="#730202"/>
<path d="M33.2529 34.3199C31.8038 34.0736 30.3645 33.8881 28.935 33.7634C27.5284 33.6505 26.1153 33.6261 24.7052 33.6904C24.01 33.7178 23.3295 33.7907 22.6539 33.8637C21.9783 33.9367 21.3223 34.0644 20.6957 34.2241C19.4426 34.4988 18.2319 34.9203 17.0925 35.4786C14.9109 36.577 13.0594 38.1673 11.7074 40.1043C10.3177 42.0899 9.28884 44.2754 8.66229 46.5729C7.40353 51.3455 7.2982 56.319 8.35388 61.1342C8.84689 63.5872 9.57769 65.9935 10.5373 68.3236C10.7674 68.912 11.0269 69.4868 11.2912 70.0662C11.5556 70.6455 11.8493 71.2249 12.1284 71.8042L13.039 73.6289L13.9642 75.4263C15.2028 77.8121 16.5295 80.1614 17.8807 82.4834C19.2319 84.8053 20.6908 87.1045 22.1987 89.358C23.7065 91.6115 25.2731 93.8696 26.8984 95.8951C28.5238 97.9205 30.2666 99.6677 32.0927 100.457C33.718 101.228 36.812 101.447 38.3297 100.913C38.6453 100.829 38.9332 100.672 39.1668 100.457C39.2283 100.411 39.2841 100.359 39.3333 100.302C39.4018 100.211 39.4703 100.138 39.5487 100.024C39.7053 99.8182 39.8718 99.5673 40.0382 99.321C40.6893 98.2855 41.316 97.0994 41.923 95.8996L42.8581 94.0247C42.9755 93.7857 43.1096 93.5541 43.2595 93.3313C43.4829 92.9797 43.7618 92.6614 44.0869 92.3871L44.2582 92.2456L44.4834 92.0905C44.6597 91.9804 44.8465 91.8857 45.0415 91.8077C45.5507 91.5999 46.1097 91.5212 46.662 91.5796C47.1783 91.6359 47.6722 91.8081 48.1013 92.0814C48.2513 92.1763 48.3922 92.2831 48.5223 92.4007C48.6265 92.4877 48.7231 92.5823 48.8111 92.6836C49.0453 92.9389 49.2488 93.2173 49.4182 93.5138C49.5553 93.7419 49.6483 93.9335 49.7413 94.116C49.9224 94.4809 50.0644 94.8002 50.2064 95.1059C50.4805 95.7035 50.7694 96.2965 51.0631 96.8622C51.6003 97.9387 52.2566 98.96 53.0214 99.9095C53.6953 100.739 54.5452 101.43 55.5181 101.939C55.7305 102.038 55.9496 102.123 56.1741 102.195C56.3672 102.256 56.5653 102.302 56.7665 102.332C57.215 102.362 57.6657 102.319 58.0981 102.204C59.2769 101.891 60.399 101.416 61.4271 100.794C63.7117 99.4649 65.7461 97.7943 67.4487 95.8495C68.3397 94.8596 69.2013 93.8012 70.0728 92.7155L72.687 89.4538C74.4103 87.2778 76.0454 85.111 77.4994 82.8347C80.4306 78.2457 82.8737 73.4008 84.7938 68.3692C85.7142 65.81 86.6542 63.2417 87.32 60.6871C88.0057 58.1437 88.3543 55.5316 88.3578 52.9092C88.3578 52.2569 88.3334 51.5954 88.2991 50.9112C88.2648 50.2269 88.2306 49.5746 88.1767 48.9177C88.0757 47.6198 87.8679 46.3311 87.555 45.0629C86.9122 42.5598 85.6459 40.2329 83.8588 38.2704C80.3095 34.3108 74.7627 31.9615 69.172 31.5007C57.0358 29.8904 49.1049 40.7749 37.659 43.626L37.4827 43.1972C40.1888 42.1982 42.8161 41.0229 45.3451 39.68C47.8794 38.3585 50.2842 36.832 52.5318 35.1182C53.0948 34.6894 53.6725 34.2515 54.2893 33.8409C54.9046 33.4338 55.5491 33.0665 56.2182 32.7415C57.547 32.0915 58.9366 31.5556 60.3697 31.1403C63.2426 30.2832 66.2564 29.9094 69.2699 30.0364C70.7838 30.1094 72.2869 30.3156 73.7591 30.6522C75.2324 30.9844 76.6696 31.4426 78.0526 32.0208C80.87 33.169 83.3932 34.8624 85.4548 36.9886C87.5347 39.1421 89.0438 41.7201 89.8608 44.5155C90.2534 45.8921 90.5284 47.2954 90.6833 48.7124C90.7665 49.4103 90.8301 50.1037 90.8791 50.7926C90.928 51.4814 90.977 52.1611 91.0161 52.8773C91.1002 55.7074 90.8158 58.5366 90.1692 61.303C89.5426 64.0628 88.6761 66.6859 87.8242 69.318C86.9248 71.9681 85.8757 74.5719 84.6812 77.1187C83.4916 79.6688 82.1894 82.1595 80.7354 84.6046C79.2814 87.0497 77.6218 89.3945 75.9475 91.6526L73.4262 95.0192C72.5842 96.1323 71.7177 97.2773 70.7679 98.3995C69.8039 99.5541 68.7484 100.64 67.6103 101.648C66.4508 102.657 65.2011 103.573 63.8749 104.385C62.4721 105.285 60.9302 105.98 59.3024 106.447C58.3308 106.72 57.3145 106.83 56.3014 106.77C55.7757 106.725 55.2559 106.631 54.7495 106.492C54.2746 106.364 53.8114 106.2 53.3641 106.004C51.7358 105.251 50.2975 104.184 49.144 102.875C48.0985 101.685 47.1956 100.392 46.4515 99.0199C46.0843 98.3676 45.7514 97.7335 45.4234 97.0857L44.9828 96.2144C44.9142 96.0958 44.8506 95.9772 44.8065 95.9088C44.7184 95.7993 44.7625 95.8403 44.8065 95.9088L44.9093 96.0046C44.9728 96.0632 45.0416 96.1167 45.115 96.1642C45.3978 96.3366 45.7194 96.4458 46.0549 96.4835C46.4251 96.5213 46.7994 96.4695 47.1417 96.333C47.2531 96.2895 47.3597 96.236 47.46 96.1733L47.5726 96.0958L47.646 96.041C47.8173 95.8905 47.8124 95.8677 47.8027 95.8996L47.6998 96.114L46.8627 97.9753C46.2703 99.2617 45.6682 100.548 44.9044 101.894C44.7086 102.231 44.4981 102.574 44.2533 102.934C44.1358 103.112 43.9841 103.308 43.8421 103.495C43.6735 103.711 43.4886 103.915 43.2889 104.106C42.5117 104.888 41.5611 105.503 40.5033 105.908C38.7415 106.555 36.853 106.847 34.9615 106.766C34.5258 106.766 34.0901 106.734 33.6592 106.693C33.4438 106.693 33.2186 106.652 33.0179 106.624C32.8172 106.597 32.5577 106.556 32.3276 106.52C31.3913 106.367 30.4754 106.121 29.5959 105.785C27.9218 105.123 26.3768 104.207 25.0234 103.075C23.8098 102.064 22.676 100.972 21.6308 99.8091C19.6089 97.5693 17.866 95.3431 16.1281 93.0576C14.3902 90.7722 12.7844 88.4137 11.2325 86.0279C9.68058 83.6421 8.24617 81.1787 6.86072 78.6971C6.51802 78.0767 6.17534 77.4563 5.84244 76.8268L4.85842 74.9883C4.19751 73.6882 3.55128 72.3379 3.01766 70.9557C1.89904 68.1889 1.07906 65.3252 0.569862 62.4069C-0.443528 56.5632 -0.193853 50.3957 2.03854 44.6159C3.14096 41.6934 4.81773 38.9878 6.98311 36.6373C8.10133 35.4498 9.37422 34.397 10.7723 33.5033C11.477 33.058 12.213 32.6571 12.9753 32.3036C13.3523 32.1166 13.7586 31.9843 14.1454 31.8474C14.5312 31.6874 14.9287 31.5532 15.335 31.446C16.9079 30.9738 18.5445 30.7112 20.1963 30.6659C21.7808 30.6049 23.3676 30.7136 24.9255 30.9898C26.4272 31.2508 27.9016 31.634 29.3315 32.1348C30.7418 32.6205 32.1073 33.2125 33.4145 33.9048L33.2529 34.3199Z" fill="#730202"/>
<path d="M46.6404 60.0234C50.0541 60.0234 52.8215 57.4455 52.8215 54.2654C52.8215 51.0853 50.0541 48.5073 46.6404 48.5073C43.2267 48.5073 40.4593 51.0853 40.4593 54.2654C40.4593 57.4455 43.2267 60.0234 46.6404 60.0234Z" fill="black"/>
<path d="M23.9756 61.0705C25.217 61.0705 26.2233 60.133 26.2233 58.9766C26.2233 57.8203 25.217 56.8828 23.9756 56.8828C22.7343 56.8828 21.7279 57.8203 21.7279 58.9766C21.7279 60.133 22.7343 61.0705 23.9756 61.0705Z" fill="black"/>
<path d="M69.8646 61.0705C71.0025 61.0705 71.925 60.133 71.925 58.9766C71.925 57.8203 71.0025 56.8828 69.8646 56.8828C68.7267 56.8828 67.8043 57.8203 67.8043 58.9766C67.8043 60.133 68.7267 61.0705 69.8646 61.0705Z" fill="black"/>
<path d="M59.7509 85.8483C60.8888 85.8483 61.8113 84.9109 61.8113 83.7545C61.8113 82.5981 60.8888 81.6606 59.7509 81.6606C58.613 81.6606 57.6906 82.5981 57.6906 83.7545C57.6906 84.9109 58.613 85.8483 59.7509 85.8483Z" fill="black"/>
<path d="M33.7153 85.8483C34.9566 85.8483 35.963 84.9109 35.963 83.7545C35.963 82.5981 34.9566 81.6606 33.7153 81.6606C32.4739 81.6606 31.4676 82.5981 31.4676 83.7545C31.4676 84.9109 32.4739 85.8483 33.7153 85.8483Z" fill="black"/>
<path d="M25.849 60.162C32.0936 64.0227 39.4284 66.0397 46.9071 65.9526C54.3857 65.8656 61.6649 63.6786 67.8054 59.6738" stroke="black" stroke-width="2" stroke-miterlimit="10"/>
<path d="M35.213 82.3576L46.7741 66.6538L58.4388 82.3576" stroke="black" stroke-width="2" stroke-miterlimit="10"/>
</svg>
