<svg width="92" height="107" viewBox="0 0 92 107" fill="none" xmlns="http://www.w3.org/2000/svg">
<path d="M45.8545 24.0791C45.1715 18.5311 46.8108 12.952 50.4386 8.47816C54.0663 4.00436 59.4096 0.972446 65.38 0C65.6498 1.01177 67.7391 9.41755 61.5102 16.7122C55.6785 23.5281 47.1199 24.0249 45.8545 24.0791Z" fill="#730202"/>
<path d="M40.58 23.1085C40.1364 21.4751 39.5821 19.8663 38.9202 18.2905C37.8631 15.7719 37.1021 14.8056 37.6384 14.2643C38.0112 13.8886 38.7977 13.9199 39.3033 14.0407C41.3461 14.5372 42.0815 17.3779 42.5003 19.0823C43.1768 22.18 43.2631 25.3544 42.7556 28.4768C42.6382 28.6736 42.4339 28.9778 42.204 28.9644C41.5401 28.9241 41.5401 26.5129 40.58 23.1085Z" fill="#730202"/>
<path d="M33.2529 34.3199C31.8038 34.0736 30.3645 33.8881 28.935 33.7634C27.5284 33.6505 26.1153 33.6261 24.7052 33.6904C24.01 33.7178 23.3295 33.7907 22.6539 33.8637C21.9783 33.9367 21.3223 34.0644 20.6957 34.2241C19.4426 34.4988 18.2319 34.9203 17.0925 35.4786C14.9109 36.577 13.0594 38.1673 11.7074 40.1043C10.3177 42.0899 9.28884 44.2754 8.66229 46.5729C7.40353 51.3455 7.2982 56.319 8.35388 61.1342C8.84689 63.5872 9.57769 65.9935 10.5373 68.3236C10.7674 68.912 11.0269 69.4868 11.2912 70.0662C11.5556 70.6455 11.8493 71.2249 12.1284 71.8042L13.039 73.6289L13.9642 75.4263C15.2028 77.8121 16.5295 80.1614 17.8807 82.4834C19.2319 84.8053 20.6908 87.1045 22.1987 89.358C23.7065 91.6115 25.2731 93.8696 26.8984 95.8951C28.5238 97.9205 30.2666 99.6677 32.0927 100.457C33.718 101.228 36.812 101.447 38.3297 100.913C38.6453 100.829 38.9332 100.672 39.1668 100.457C39.2283 100.411 39.2841 100.359 39.3333 100.302C39.4018 100.211 39.4703 100.138 39.5487 100.024C39.7053 99.8182 39.8718 99.5673 40.0382 99.321C40.6893 98.2855 41.316 97.0994 41.923 95.8996L42.8581 94.0247C42.9755 93.7857 43.1096 93.5541 43.2595 93.3313C43.4829 92.9797 43.7618 92.6614 44.0869 92.3871L44.2582 92.2456L44.4834 92.0905C44.6597 91.9804 44.8465 91.8857 45.0415 91.8077C45.5507 91.5999 46.1097 91.5212 46.662 91.5796C47.1783 91.6359 47.6722 91.8081 48.1013 92.0814C48.2513 92.1763 48.3922 92.2831 48.5223 92.4007C48.6265 92.4877 48.7231 92.5823 48.8111 92.6836C49.0453 92.9389 49.2488 93.2173 49.4182 93.5138C49.5553 93.7419 49.6483 93.9335 49.7413 94.116C49.9224 94.4809 50.0644 94.8002 50.2064 95.1059C50.4805 95.7035 50.7694 96.2965 51.0631 96.8622C51.6003 97.9387 52.2566 98.96 53.0214 99.9095C53.6953 100.739 54.5452 101.43 55.5181 101.939C55.7305 102.038 55.9496 102.123 56.1741 102.195C56.3672 102.256 56.5653 102.302 56.7665 102.332C57.215 102.362 57.6657 102.319 58.0981 102.204C59.2769 101.891 60.399 101.416 61.4271 100.794C63.7117 99.4649 65.7461 97.7943 67.4487 95.8495C68.3397 94.8596 69.2013 93.8012 70.0728 92.7155L72.687 89.4538C74.4103 87.2778 76.0454 85.111 77.4994 82.8347C80.4306 78.2457 82.8737 73.4008 84.7938 68.3692C85.7142 65.81 86.6542 63.2417 87.32 60.6871C88.0057 58.1437 88.3543 55.5316 88.3578 52.9092C88.3578 52.2569 88.3334 51.5954 88.2991 50.9112C88.2648 50.2269 88.2306 49.5746 88.1767 48.9177C88.0757 47.6198 87.8679 46.3311 87.555 45.0629C86.9122 42.5598 85.6459 40.2329 83.8588 38.2704C80.3095 34.3108 74.7627 31.9615 69.172 31.5007C57.0358 29.8904 49.1049 40.7749 37.659 43.626L37.4827 43.1972C40.1888 42.1982 42.8161 41.0229 45.3451 39.68C47.8794 38.3585 50.2842 36.832 52.5318 35.1182C53.0948 34.6894 53.6725 34.2515 54.2893 33.8409C54.9046 33.4338 55.5491 33.0665 56.2182 32.7415C57.547 32.0915 58.9366 31.5556 60.3697 31.1403C63.2426 30.2832 66.2564 29.9094 69.2699 30.0364C70.7838 30.1094 72.2869 30.3156 73.7591 30.6522C75.2324 30.9844 76.6696 31.4426 78.0526 32.0208C80.87 33.169 83.3932 34.8624 85.4548 36.9886C87.5347 39.1421 89.0438 41.7201 89.8608 44.5155C90.2534 45.8921 90.5284 47.2954 90.6833 48.7124C90.7665 49.4103 90.8301 50.1037 90.8791 50.7926C90.928 51.4814 90.977 52.1611 91.0161 52.8773C91.1002 55.7074 90.8158 58.5366 90.1692 61.303C89.5426 64.0628 88.6761 66.6859 87.8242 69.318C86.9248 71.9681 85.8757 74.5719 84.6812 77.1187C83.4916 79.6688 82.1894 82.1595 80.7354 84.6046C79.2814 87.0497 77.6218 89.3945 75.9475 91.6526L73.4262 95.0192C72.5842 96.1323 71.7177 97.2773 70.7679 98.3995C69.8039 99.5541 68.7484 100.64 67.6103 101.648C66.4508 102.657 65.2011 103.573 63.8749 104.385C62.4721 105.285 60.9302 105.98 59.3024 106.447C58.3308 106.72 57.3145 106.83 56.3014 106.77C55.7757 106.725 55.2559 106.631 54.7495 106.492C54.2746 106.364 53.8114 106.2 53.3641 106.004C51.7358 105.251 50.2975 104.184 49.144 102.875C48.0985 101.685 47.1956 100.392 46.4515 99.0199C46.0843 98.3676 45.7514 97.7335 45.4234 97.0857L44.9828 96.2144C44.9142 96.0958 44.8506 95.9772 44.8065 95.9088C44.7184 95.7993 44.7625 95.8403 44.8065 95.9088L44.9093 96.0046C44.9728 96.0632 45.0416 96.1167 45.115 96.1642C45.3978 96.3366 45.7194 96.4458 46.0549 96.4835C46.4251 96.5213 46.7994 96.4695 47.1417 96.333C47.2531 96.2895 47.3597 96.236 47.46 96.1733L47.5726 96.0958L47.646 96.041C47.8173 95.8905 47.8124 95.8677 47.8027 95.8996L47.6998 96.114L46.8627 97.9753C46.2703 99.2617 45.6682 100.548 44.9044 101.894C44.7086 102.231 44.4981 102.574 44.2533 102.934C44.1358 103.112 43.9841 103.308 43.8421 103.495C43.6735 103.711 43.4886 103.915 43.2889 104.106C42.5117 104.888 41.5611 105.503 40.5033 105.908C38.7415 106.555 36.853 106.847 34.9615 106.766C34.5258 106.766 34.0901 106.734 33.6592 106.693C33.4438 106.693 33.2186 106.652 33.0179 106.624C32.8172 106.597 32.5577 106.556 32.3276 106.52C31.3913 106.367 30.4754 106.121 29.5959 105.785C27.9218 105.123 26.3768 104.207 25.0234 103.075C23.8098 102.064 22.676 100.972 21.6308 99.8091C19.6089 97.5693 17.866 95.3431 16.1281 93.0576C14.3902 90.7722 12.7844 88.4137 11.2325 86.0279C9.68058 83.6421 8.24617 81.1787 6.86072 78.6971C6.51802 78.0767 6.17534 77.4563 5.84244 76.8268L4.85842 74.9883C4.19751 73.6882 3.55128 72.3379 3.01766 70.9557C1.89904 68.1889 1.07906 65.3252 0.569862 62.4069C-0.443528 56.5632 -0.193853 50.3957 2.03854 44.6159C3.14096 41.6934 4.81773 38.9878 6.98311 36.6373C8.10133 35.4498 9.37422 34.397 10.7723 33.5033C11.477 33.058 12.213 32.6571 12.9753 32.3036C13.3523 32.1166 13.7586 31.9843 14.1454 31.8474C14.5312 31.6874 14.9287 31.5532 15.335 31.446C16.9079 30.9738 18.5445 30.7112 20.1963 30.6659C21.7808 30.6049 23.3676 30.7136 24.9255 30.9898C26.4272 31.2508 27.9016 31.634 29.3315 32.1348C30.7418 32.6205 32.1073 33.2125 33.4145 33.9048L33.2529 34.3199Z" fill="#730202"/>
<path d="M46.6404 60.0234C50.0541 60.0234 52.8215 57.4455 52.8215 54.2654C52.8215 51.0853 50.0541 48.5073 46.6404 48.5073C43.2267 48.5073 40.4593 51.0853 40.4593 54.2654C40.4593 57.4455 43.2267 60.0234 46.6404 60.0234Z" fill="black"/>
<path d="M23.9756 61.0705C25.217 61.0705 26.2233 60.133 26.2233 58.9766C26.2233 57.8203 25.217 56.8828 23.9756 56.8828C22.7343 56.8828 21.7279 57.8203 21.7279 58.9766C21.7279 60.133 22.7343 61.0705 23.9756 61.0705Z" fill="black"/>
<path d="M69.8646 61.0705C71.0025 61.0705 71.925 60.133 71.925 58.9766C71.925 57.8203 71.0025 56.8828 69.8646 56.8828C68.7267 56.8828 67.8043 57.8203 67.8043 58.9766C67.8043 60.133 68.7267 61.0705 69.8646 61.0705Z" fill="black"/>
<path d="M59.7509 85.8483C60.8888 85.8483 61.8113 84.9109 61.8113 83.7545C61.8113 82.5981 60.8888 81.6606 59.7509 81.6606C58.613 81.6606 57.6906 82.5981 57.6906 83.7545C57.6906 84.9109 58.613 85.8483 59.7509 85.8483Z" fill="black"/>
<path d="M33.7153 85.8483C34.9566 85.8483 35.963 84.9109 35.963 83.7545C35.963 82.5981 34.9566 81.6606 33.7153 81.6606C32.4739 81.6606 31.4676 82.5981 31.4676 83.7545C31.4676 84.9109 32.4739 85.8483 33.7153 85.8483Z" fill="black"/>
<path d="M25.849 60.162C32.0936 64.0227 39.4284 66.0397 46.9071 65.9526C54.3857 65.8656 61.6649 63.6786 67.8054 59.6738" stroke="black" stroke-width="2" stroke-miterlimit="10"/>
<path d="M35.213 82.3576L46.7741 66.6538L58.4388 82.3576" stroke="black" stroke-width="2" stroke-miterlimit="10"/>
</svg>
